<?xml version="1.0" encoding="utf-8"?>
<!-- Generator: Adobe Illustrator 22.1.0, SVG Export Plug-In . SVG Version: 6.00 Build 0)  -->
<svg version="1.1" xmlns="http://www.w3.org/2000/svg" xmlns:xlink="http://www.w3.org/1999/xlink" x="0px" y="0px"
	 viewBox="0 0 2160 2160" style="enable-background:new 0 0 2160 2160;" xml:space="preserve">
<style type="text/css">
	.st0{fill:#FFFFFF;}
	.st1{fill:none;stroke:#FFEA24;stroke-width:15;stroke-miterlimit:10;}
	.st2{fill:none;stroke:#427FEA;stroke-width:15;stroke-miterlimit:10;}
	.st3{fill:none;stroke:#FF2727;stroke-width:15;stroke-miterlimit:10;}
	.st4{fill:none;stroke:#E456E8;stroke-width:15;stroke-miterlimit:10;}
	.st5{fill:#FFFFFF;stroke:#000000;stroke-width:5;stroke-miterlimit:10;}
	.st6{font-family:'P22JohnstonUnderground';}
	.st7{font-size:30px;}
</style>
<g id="Ebene_2">
	<g>
		<g>
			<path class="st0" d="M1810.5,972.5l-205.9,205.9c-7.8,7.8-20.5,20.5-28.3,28.3l-156.2,156.2c-7.8,7.8-23.1,14.1-34.1,14.1h-283
				c-11,0-26.4-6.4-34.1-14.1l-228.7-228.7c-7.8-7.8-23.1-14.1-34.1-14.1H240.8"/>
			<path class="st0" d="M1810.5,972.5l-205.9,205.9c-7.8,7.8-20.5,20.5-28.3,28.3l-156.2,156.2c-7.8,7.8-23.1,14.1-34.1,14.1h-283
				c-11,0-26.4-6.4-34.1-14.1l-228.7-228.7c-7.8-7.8-23.1-14.1-34.1-14.1H240.8"/>
		</g>
		<g>
			<path class="st0" d="M807,915l154.9-154.9c7.8-7.8,20.5-7.8,28.3,0l247.7,247.7c7.8,7.8,20.5,20.5,28.3,28.3l226.2,226.2
				c7.8,7.8,20.5,20.5,28.3,28.3l42.2,42.2c7.8,7.8,23.1,14.1,34.1,14.1h221c11,0,26.4-6.4,34.1-14.1l127-127"/>
			<path class="st0" d="M807,915l154.9-154.9c7.8-7.8,20.5-7.8,28.3,0l247.7,247.7c7.8,7.8,20.5,20.5,28.3,28.3l226.2,226.2
				c7.8,7.8,20.5,20.5,28.3,28.3l42.2,42.2c7.8,7.8,23.1,14.1,34.1,14.1h221c11,0,26.4-6.4,34.1-14.1l127-127"/>
		</g>
		<g>
			<path class="st0" d="M520,312L376.1,455.9c-7.8,7.8-7.8,20.5,0,28.3l226.7,226.7c7.8,7.8,20.5,20.5,28.3,28.3l178.7,178.7
				c7.8,7.8,14.1,23.1,14.1,34.1v148c0,11,0,29,0,40v258c0,11,6.4,26.3,14.2,34.1l231.9,230.8c7.8,7.8,23.2,14.1,34.2,14.1H1772"/>
			<path class="st0" d="M520,312L376.1,455.9c-7.8,7.8-7.8,20.5,0,28.3l226.7,226.7c7.8,7.8,20.5,20.5,28.3,28.3l178.7,178.7
				c7.8,7.8,14.1,23.1,14.1,34.1v148c0,11,0,29,0,40v258c0,11,6.4,26.3,14.2,34.1l231.9,230.8c7.8,7.8,23.2,14.1,34.2,14.1H1772"/>
		</g>
		<g>
			<path class="st0" d="M1810.5,971.3V752.5c0-11-6.4-26.4-14.1-34.1l-208.2-208.2c-7.8-7.8-20.5-7.8-28.3,0l-187.7,187.7
				c-7.8,7.8-20.5,7.8-28.3,0l-173.7-173.7c-7.8-7.8-23.1-14.1-34.1-14.1H886.3"/>
			<path class="st0" d="M1810.5,971.3V752.5c0-11-6.4-26.4-14.1-34.1l-208.2-208.2c-7.8-7.8-20.5-7.8-28.3,0l-187.7,187.7
				c-7.8,7.8-20.5,7.8-28.3,0l-173.7-173.7c-7.8-7.8-23.1-14.1-34.1-14.1H886.3"/>
		</g>
		<g>
			<path class="st0" d="M1577,1347v310c0,11,0,29,0,40v157c0,11-9,20-20,20h-325c-11,0-29,0-40,0H935.6c-11,0-26.4-6.4-34.1-14.1
				l-429.1-429.1"/>
			<path class="st0" d="M1577,1347v310c0,11,0,29,0,40v157c0,11-9,20-20,20h-325c-11,0-29,0-40,0H935.6c-11,0-26.4-6.4-34.1-14.1
				l-429.1-429.1"/>
		</g>
		<circle class="st0" cx="515.5" cy="316.5" r="13.2"/>
		<circle class="st0" cx="409.5" cy="517.2" r="13.2"/>
		<circle class="st0" cx="807" cy="914.4" r="13.2"/>
		<circle class="st0" cx="1109.8" cy="879" r="13.2"/>
		<circle class="st0" cx="240.8" cy="1119.9" r="13.2"/>
		<circle class="st0" cx="357.8" cy="1119.9" r="13.2"/>
		<circle class="st0" cx="549.1" cy="1119.9" r="13.2"/>
		<circle class="st0" cx="824" cy="1120.1" r="19.2"/>
		<circle class="st0" cx="1232" cy="1002.8" r="19.2"/>
		<circle class="st0" cx="472.9" cy="1432" r="19.2"/>
		<circle class="st0" cx="857.9" cy="1816.5" r="13.2"/>
		<circle class="st0" cx="964.8" cy="1874" r="13.2"/>
		<circle class="st0" cx="1292.3" cy="1677" r="13.2"/>
		<circle class="st0" cx="824" cy="1390.2" r="13.2"/>
		<circle class="st0" cx="970.2" cy="1563.7" r="13.2"/>
		<circle class="st0" cx="721.1" cy="1680.1" r="13.2"/>
		<circle class="st0" cx="595.1" cy="703.3" r="19.2"/>
		<circle class="st0" cx="1772" cy="1677" r="19.2"/>
		<circle class="st0" cx="1214.3" cy="1874" r="13.2"/>
		<circle class="st0" cx="1541.1" cy="1874" r="13.2"/>
		<circle class="st0" cx="1415" cy="1874" r="13.2"/>
		<circle class="st0" cx="1506.7" cy="1276.5" r="13.2"/>
		<circle class="st0" cx="1577" cy="1677" r="13.2"/>
		<circle class="st0" cx="1232" cy="1377" r="13.2"/>
		<circle class="st0" cx="1583.4" cy="1199.8" r="19.2"/>
		<circle class="st0" cx="1577" cy="1433.4" r="13.2"/>
		<circle class="st0" cx="1577" cy="1520.4" r="13.2"/>
		<circle class="st0" cx="1788.9" cy="1347" r="13.2"/>
		<circle class="st0" cx="1979.2" cy="1205.8" r="13.2"/>
		<circle class="st0" cx="1810.5" cy="971.3" r="13.2"/>
		<circle class="st0" cx="1729.5" cy="1054.1" r="13.2"/>
		<circle class="st0" cx="1780.1" cy="701.9" r="13.2"/>
		<circle class="st0" cx="1604.4" cy="526" r="13.2"/>
		<circle class="st0" cx="1389.9" cy="680.5" r="13.2"/>
		<circle class="st0" cx="1204.4" cy="558.4" r="13.2"/>
		<circle class="st0" cx="886.3" cy="510.8" r="13.2"/>
	</g>
	<g>
		<g>
			<path class="st1" d="M1810.5,972.5l-205.9,205.9c-7.8,7.8-20.5,20.5-28.3,28.3l-156.2,156.2c-7.8,7.8-23.1,14.1-34.1,14.1h-283
				c-11,0-26.4-6.4-34.1-14.1l-228.7-228.7c-7.8-7.8-23.1-14.1-34.1-14.1H240.8"/>
		</g>
		<g>
			<path class="st2" d="M807,915l154.9-154.9c7.8-7.8,20.5-7.8,28.3,0l247.7,247.7c7.8,7.8,20.5,20.5,28.3,28.3l226.2,226.2
				c7.8,7.8,20.5,20.5,28.3,28.3l42.2,42.2c7.8,7.8,23.1,14.1,34.1,14.1h221c11,0,26.4-6.4,34.1-14.1l127-127"/>
		</g>
		<g>
			<path class="st3" d="M520,312L376.1,455.9c-7.8,7.8-7.8,20.5,0,28.3l226.7,226.7c7.8,7.8,20.5,20.5,28.3,28.3l178.7,178.7
				c7.8,7.8,14.1,23.1,14.1,34.1v148c0,11,0,29,0,40v258c0,11,6.4,26.3,14.2,34.1l231.9,230.8c7.8,7.8,23.2,14.1,34.2,14.1H1772"/>
		</g>
		<g>
			<path class="st4" d="M1810.5,971.3V752.5c0-11-6.4-26.4-14.1-34.1l-208.2-208.2c-7.8-7.8-20.5-7.8-28.3,0l-187.7,187.7
				c-7.8,7.8-20.5,7.8-28.3,0l-173.7-173.7c-7.8-7.8-23.1-14.1-34.1-14.1H886.3"/>
		</g>
		<g>
			<path class="st2" d="M1577,1347v310c0,11,0,29,0,40v157c0,11-9,20-20,20h-325c-11,0-29,0-40,0H935.6c-11,0-26.4-6.4-34.1-14.1
				l-429.1-429.1"/>
		</g>
		<circle class="st5" cx="515.5" cy="316.5" r="13.2"/>
		<circle class="st5" cx="409.5" cy="517.2" r="13.2"/>
		<circle class="st5" cx="807" cy="914.4" r="13.2"/>
		<circle class="st5" cx="1109.8" cy="879" r="13.2"/>
		<circle class="st5" cx="240.8" cy="1119.9" r="13.2"/>
		<circle class="st5" cx="357.8" cy="1119.9" r="13.2"/>
		<circle class="st5" cx="549.1" cy="1119.9" r="13.2"/>
		<circle class="st5" cx="824" cy="1120.1" r="19.2"/>
		<circle class="st5" cx="1232" cy="1002.8" r="19.2"/>
		<circle class="st5" cx="472.9" cy="1432" r="19.2"/>
		<circle class="st5" cx="857.9" cy="1816.5" r="13.2"/>
		<circle class="st5" cx="964.8" cy="1874" r="13.2"/>
		<circle class="st5" cx="1292.3" cy="1677" r="13.2"/>
		<circle class="st5" cx="824" cy="1390.2" r="13.2"/>
		<circle class="st5" cx="970.2" cy="1563.7" r="13.2"/>
		<circle class="st5" cx="721.1" cy="1680.1" r="13.2"/>
		<circle class="st5" cx="595.1" cy="703.3" r="19.2"/>
		<circle class="st5" cx="1772" cy="1677" r="19.2"/>
		<circle class="st5" cx="1214.3" cy="1874" r="13.2"/>
		<circle class="st5" cx="1541.1" cy="1874" r="13.2"/>
		<circle class="st5" cx="1415" cy="1874" r="13.2"/>
		<circle class="st5" cx="1506.7" cy="1276.5" r="13.2"/>
		<circle class="st5" cx="1577" cy="1677" r="13.2"/>
		<circle class="st5" cx="1232" cy="1377" r="13.2"/>
		<circle class="st5" cx="1583.4" cy="1199.8" r="19.2"/>
		<circle class="st5" cx="1577" cy="1433.4" r="13.2"/>
		<circle class="st5" cx="1577" cy="1520.4" r="13.2"/>
		<circle class="st5" cx="1788.9" cy="1347" r="13.2"/>
		<circle class="st5" cx="1979.2" cy="1205.8" r="13.2"/>
		<circle class="st5" cx="1810.5" cy="971.3" r="13.2"/>
		<circle class="st5" cx="1729.5" cy="1054.1" r="13.2"/>
		<circle class="st5" cx="1780.1" cy="701.9" r="13.2"/>
		<circle class="st5" cx="1604.4" cy="526" r="13.2"/>
		<circle class="st5" cx="1389.9" cy="680.5" r="13.2"/>
		<circle class="st5" cx="1204.4" cy="558.4" r="13.2"/>
		<circle class="st5" cx="886.3" cy="510.8" r="13.2"/>
	</g>
</g>
<g id="Text">
	<text transform="matrix(1 0 0 1 25.5 1127.5496)" class="st6 st7">Snobby Shores</text>
	<text transform="matrix(1 0 0 1 344.5354 1168.7498)"><tspan x="0" y="0" class="st6 st7">Ventourous</tspan><tspan x="0" y="36" class="st6 st7">Vikings</tspan></text>
	<text transform="matrix(1 0 0 1 539.9438 1168.7493)" class="st6 st7">Fit Football Field</text>
	<text transform="matrix(1 0 0 1 851.9437 1397.4158)" class="st6 st7">Shifty Shafts</text>
	<text transform="matrix(1 0 0 1 1223.4028 1346.9998)" class="st6 st7">Salty Springs</text>
	<text transform="matrix(1 0 0 1 1263.3339 994.5001)" class="st6 st7">Dusty Divot</text>
	<text transform="matrix(1 0 0 1 1137.3339 873.5001)" class="st6 st7">Rapid River</text>
	<text transform="matrix(1 0 0 1 1752.6672 1080.0001)" class="st6 st7">Careless Camping</text>
	<text transform="matrix(1 0 0 1 1835.3337 983.5831)" class="st6 st7">Lonely Lodge</text>
	<text transform="matrix(1 0 0 1 1979.1763 1180.5544)" class="st6 st7">Vast Villa</text>
	<text transform="matrix(1 0 0 1 1602.6023 1441.7)" class="st6 st7">Odd Overpass</text>
	<text transform="matrix(1 0 0 1 1418.7472 1528.5247)" class="st6 st7">Pally Pond</text>
	<text transform="matrix(1 0 0 1 1780.5928 1393.8873)" class="st6 st7">Reckless Racing Track</text>
	<text transform="matrix(1 0 0 1 1611.5928 1222.2509)" class="st6 st7">Retail Row</text>
	<text transform="matrix(1 0 0 1 1539.0928 1285.7509)" class="st6 st7">Hick Houses</text>
	<text transform="matrix(1 0 0 1 1000.7361 1563.7354)" class="st6 st7">Befuddled Bridge</text>
	<text transform="matrix(1 0 0 1 1285.0054 1650.4014)" class="st6 st7">Fatal Fields</text>
	<text transform="matrix(1 0 0 1 1204.8336 1920.4016)" class="st6 st7">Lucky Landing</text>
	<text transform="matrix(1 0 0 1 1401.7474 1808.4014)"><tspan x="0" y="0" class="st6 st7">Ordinary</tspan><tspan x="0" y="36" class="st6 st7">Oasis</tspan></text>
	<text transform="matrix(1 0 0 1 1596.4141 1715.0681)"><tspan x="0" y="0" class="st6 st7">Carven</tspan><tspan x="0" y="36" class="st6 st7">Canyon</tspan></text>
	<text transform="matrix(1 0 0 1 1533.4475 1920.4016)" class="st6 st7">Vacant Village</text>
	<text transform="matrix(1 0 0 1 657.0054 1840.4014)" class="st6 st7">Flush Factory</text>
	<text transform="matrix(1 0 0 1 951.5002 1811.735)"><tspan x="0" y="0" class="st6 st7">Wacky </tspan><tspan x="0" y="36" class="st6 st7">Warehouses</tspan></text>
	<text transform="matrix(1 0 0 1 453.6693 1696.2275)" class="st6 st7">Chippendale Chair</text>
	<text transform="matrix(1 0 0 1 263.6721 1441)" class="st6 st7">Greasy Grove</text>
	<text transform="matrix(1 0 0 1 1805.6721 1687.0677)" class="st6 st7">Paradise Palms</text>
	<text transform="matrix(1 0 0 1 851.9437 1112.6675)" class="st6 st7">Tilted Towers</text>
	<text transform="matrix(1 0 0 1 843.2771 927.649)" class="st6 st7">Loot Lake</text>
	<text transform="matrix(1 0 0 1 399.2771 733.6664)" class="st6 st7">Pleasant Park</text>
	<text transform="matrix(1 0 0 1 210.6104 537.8333)" class="st6 st7">Haunted Hills</text>
	<text transform="matrix(1 0 0 1 690.277 519.7668)" class="st6 st7">Murky Motel</text>
	<text transform="matrix(1 0 0 1 1056.9435 591.767)" class="st6 st7">Lazy Links</text>
	<text transform="matrix(1 0 0 1 1400.2769 728.4336)" class="st6 st7">Tomato Temple</text>
	<text transform="matrix(1 0 0 1 1801.6716 696.9337)" class="st6 st7">Wailing Woods</text>
	<text transform="matrix(1 0 0 1 1626.1716 519.767)" class="st6 st7">Risky Reels</text>
	<text transform="matrix(1 0 0 1 539.9438 323.1666)" class="st6 st7">Junk Junction</text>
</g>
</svg>
